<?xml version="1.0" standalone="no"?>
<!DOCTYPE svg PUBLIC "-//W3C//DTD SVG 20010904//EN"
 "http://www.w3.org/TR/2001/REC-SVG-20010904/DTD/svg10.dtd">
<svg version="1.0" xmlns="http://www.w3.org/2000/svg"
 width="214.000000pt" height="207.000000pt" viewBox="0 0 214.000000 207.000000"
 preserveAspectRatio="xMidYMid meet">

<g transform="translate(0.000000,207.000000) scale(0.100000,-0.100000)"
fill="#000000" stroke="none">
<path d="M905 1804 c-301 -67 -530 -284 -621 -589 -26 -85 -26 -314 -1 -405
151 -542 759 -778 1229 -478 319 204 450 611 312 975 -83 223 -283 405 -529
483 -93 30 -288 37 -390 14z m213 -389 c151 -69 233 -243 187 -401 -9 -32 -23
-68 -30 -80 -13 -19 -8 -27 66 -100 95 -93 113 -122 99 -158 -11 -30 -42 -48
-67 -40 -10 4 -58 46 -108 95 l-90 88 -52 -25 c-131 -65 -304 -30 -402 82 -81
91 -107 208 -72 322 62 206 277 305 469 217z"/>
<path d="M885 1301 c-210 -97 -140 -411 93 -411 145 0 237 120 208 273 -8 45
-70 115 -120 138 -52 24 -130 24 -181 0z"/>
</g>
</svg>
